<?xml version="1.0" standalone="no"?>
<!DOCTYPE svg PUBLIC "-//W3C//DTD SVG 20010904//EN"
 "http://www.w3.org/TR/2001/REC-SVG-20010904/DTD/svg10.dtd">
<svg version="1.0" xmlns="http://www.w3.org/2000/svg"
 width="1024.000000pt" height="1024.000000pt" viewBox="0 0 1024.000000 1024.000000"
 preserveAspectRatio="xMidYMid meet">
<metadata>
Created by potrace 1.11, written by Peter Selinger 2001-2013
</metadata>
<g transform="translate(0.000000,1024.000000) scale(0.100000,-0.100000)"
fill="#000000" stroke="none">
<path d="M2439 9426 c-2 -2 -31 -7 -64 -10 -33 -3 -71 -8 -85 -12 -14 -3 -36
-7 -50 -9 -49 -9 -216 -59 -270 -82 -89 -37 -230 -109 -294 -150 -290 -188
-518 -457 -651 -768 -25 -60 -84 -235 -79 -235 3 0 1 -8 -5 -17 -10 -19 -37
-173 -46 -263 -6 -60 -7 -5200 -1 -5265 5 -50 17 -143 21 -164 27 -130 38
-174 55 -220 12 -30 19 -60 16 -68 -3 -8 -2 -12 2 -9 5 3 16 -17 26 -44 25
-70 123 -256 154 -292 8 -9 11 -23 6 -30 -4 -7 -4 -10 1 -6 11 10 58 -50 49
-63 -4 -8 -3 -9 4 -5 6 4 19 -5 29 -20 9 -15 39 -50 65 -78 33 -36 44 -53 35
-59 -8 -6 -6 -7 5 -3 11 3 27 -7 47 -30 17 -18 34 -34 38 -34 5 0 23 -16 41
-35 17 -20 32 -32 32 -28 0 4 4 4 8 -2 10 -14 83 -69 110 -84 12 -7 20 -17 16
-23 -4 -6 -3 -8 4 -5 11 7 72 -23 72 -35 0 -5 7 -8 16 -8 8 0 13 -4 10 -9 -3
-5 0 -8 7 -7 6 0 41 -13 77 -30 100 -48 137 -64 150 -64 6 0 8 -5 4 -12 -4 -7
-3 -8 5 -4 6 4 37 -2 69 -12 31 -11 80 -25 107 -31 28 -7 66 -16 85 -21 37
-10 97 -19 165 -25 61 -6 5257 -6 5285 0 14 3 50 7 80 10 30 3 62 7 70 10 30
9 86 18 112 19 15 0 25 2 22 5 -4 5 70 30 89 31 5 0 5 -5 1 -12 -5 -7 -3 -8 5
-4 7 5 10 11 7 14 -9 8 66 33 82 27 7 -3 11 -1 8 4 -5 8 39 25 47 19 2 -2 11
5 21 15 10 9 22 15 27 12 5 -4 9 -2 9 2 0 10 121 68 133 65 5 -1 6 2 3 7 -6 9
31 27 47 23 5 -1 6 2 3 7 -4 5 3 12 14 16 11 3 20 11 20 16 0 5 6 9 14 9 7 0
25 11 40 25 15 14 33 22 39 19 7 -4 9 -4 5 0 -4 5 5 18 20 31 21 19 30 21 42
12 13 -10 13 -10 3 4 -10 12 -9 18 7 32 11 9 20 14 20 11 0 -3 12 8 26 25 14
17 31 28 37 24 7 -3 9 -2 4 2 -4 5 10 26 30 48 92 97 102 108 101 110 -6 8 36
55 45 50 6 -4 7 -1 2 7 -4 7 -4 15 1 19 36 25 177 289 209 391 10 30 21 60 25
65 5 6 9 15 9 20 1 28 24 105 31 105 4 0 6 9 3 21 -4 12 0 25 8 30 10 6 10 9
2 9 -9 0 -10 7 -3 25 5 14 9 29 9 33 -1 4 0 9 1 12 1 3 5 28 8 55 10 72 9
5349 -1 5415 -9 62 -30 162 -47 230 -7 25 -13 50 -14 55 -10 36 -61 164 -93
229 -121 248 -292 456 -520 631 -40 30 -75 55 -78 55 -2 0 -21 12 -42 26 -122
83 -371 183 -548 219 -165 34 -162 34 -2836 34 -1444 0 -2628 -1 -2630 -3z"/>
</g>
</svg>
